<svg width="119" height="30" viewBox="0 0 119 30" fill="none" xmlns="http://www.w3.org/2000/svg">
<path d="M9.79823 29.9243C7.95713 29.9243 6.29256 29.6091 4.80454 28.9786C3.34174 28.348 2.18159 27.4401 1.32409 26.2547C0.466583 25.0694 0.0252206 23.6696 0 22.0555H5.67465C5.75032 23.14 6.12863 23.9975 6.80958 24.628C7.51576 25.2585 8.47415 25.5738 9.68474 25.5738C10.9206 25.5738 11.8916 25.2837 12.5977 24.7037C13.3039 24.0984 13.657 23.3165 13.657 22.3581C13.657 21.5763 13.4174 20.9332 12.9382 20.4288C12.459 19.9243 11.8537 19.5334 11.1223 19.256C10.4161 18.9533 9.43253 18.6255 8.1715 18.2724C6.45649 17.768 5.05675 17.2762 3.97226 16.797C2.91299 16.2926 1.99243 15.5485 1.21059 14.5649C0.453972 13.5561 0.0756621 12.2194 0.0756621 10.5549C0.0756621 8.99117 0.466583 7.62926 1.24842 6.4691C2.03026 5.30895 3.12736 4.42623 4.53972 3.82093C5.95208 3.19042 7.5662 2.87516 9.38209 2.87516C12.1059 2.87516 14.3127 3.54351 16.0025 4.8802C17.7175 6.19168 18.6633 8.03279 18.8398 10.4035H13.0139C12.9634 9.49559 12.5725 8.75158 11.8411 8.1715C11.1349 7.5662 10.1892 7.26356 9.00378 7.26356C7.96973 7.26356 7.13745 7.52837 6.50694 8.05801C5.90164 8.58764 5.59899 9.35687 5.59899 10.3657C5.59899 11.0719 5.82598 11.6646 6.27995 12.1438C6.75914 12.5977 7.33922 12.976 8.02018 13.2787C8.72636 13.5561 9.70996 13.884 10.971 14.2623C12.686 14.7667 14.0858 15.2711 15.1702 15.7755C16.2547 16.2799 17.1879 17.0366 17.9697 18.0454C18.7516 19.0542 19.1425 20.3783 19.1425 22.0177C19.1425 23.43 18.7768 24.7415 18.0454 25.9521C17.314 27.1627 16.2421 28.1337 14.8298 28.8651C13.4174 29.5712 11.7402 29.9243 9.79823 29.9243Z" fill="#1C89E6"/>
<path d="M49.762 8.39849C52.3345 8.39849 54.4026 9.19294 55.9663 10.7818C57.5552 12.3455 58.3496 14.5397 58.3496 17.3644V29.6595H53.0533V18.0832C53.0533 16.4439 52.6371 15.1955 51.8049 14.338C50.9726 13.4552 49.8376 13.0139 48.4001 13.0139C46.9625 13.0139 45.8149 13.4552 44.9574 14.338C44.1252 15.1955 43.709 16.4439 43.709 18.0832V29.6595H38.4127V18.0832C38.4127 16.4439 37.9965 15.1955 37.1642 14.338C36.332 13.4552 35.197 13.0139 33.7595 13.0139C32.2967 13.0139 31.1365 13.4552 30.279 14.338C29.4467 15.1955 29.0306 16.4439 29.0306 18.0832V29.6595H23.7342V8.70113H29.0306V11.2358C29.7115 10.3531 30.5817 9.65952 31.6409 9.15511C32.7254 8.65069 33.9108 8.39849 35.197 8.39849C36.8364 8.39849 38.2992 8.75158 39.5854 9.45775C40.8717 10.1387 41.8679 11.1223 42.5741 12.4086C43.255 11.198 44.2387 10.227 45.5249 9.49558C46.8364 8.76419 48.2487 8.39849 49.762 8.39849Z" fill="white"/>
<path d="M82.8585 18.7264C82.8585 19.483 82.8081 20.1639 82.7072 20.7692H67.3856C67.5117 22.2825 68.0414 23.4678 68.9745 24.3253C69.9077 25.1828 71.0552 25.6116 72.4171 25.6116C74.3844 25.6116 75.7841 24.7667 76.6164 23.0769H82.3289C81.7236 25.0946 80.5634 26.7591 78.8484 28.0706C77.1334 29.3569 75.0275 30 72.5306 30C70.513 30 68.6971 29.5586 67.083 28.6759C65.4941 27.768 64.2456 26.4943 63.3377 24.855C62.455 23.2156 62.0136 21.3241 62.0136 19.1803C62.0136 17.0113 62.455 15.1072 63.3377 13.4678C64.2204 11.8285 65.4562 10.5675 67.0451 9.68474C68.634 8.80202 70.4625 8.36066 72.5306 8.36066C74.5231 8.36066 76.3011 8.78941 77.8648 9.64691C79.4537 10.5044 80.6769 11.7276 81.5344 13.3165C82.4171 14.8802 82.8585 16.6835 82.8585 18.7264ZM77.373 17.2131C77.3478 15.8512 76.856 14.7667 75.8976 13.9596C74.9392 13.1274 73.7665 12.7112 72.3793 12.7112C71.0678 12.7112 69.9581 13.1148 69.0502 13.9218C68.1675 14.7037 67.6252 15.8008 67.4234 17.2131H77.373Z" fill="white"/>
<path d="M85.3624 19.1047C85.3624 16.9861 85.7786 15.1072 86.6109 13.4678C87.4684 11.8285 88.6285 10.5675 90.0913 9.68474C91.5541 8.80202 93.1809 8.36066 94.9715 8.36066C96.3334 8.36066 97.6323 8.6633 98.8681 9.2686C100.104 9.84868 101.088 10.6305 101.819 11.6141V1.66457H107.191V29.6595H101.819V26.5574C101.163 27.5914 100.243 28.4237 99.0573 29.0542C97.8719 29.6847 96.4974 30 94.9337 30C93.1682 30 91.5541 29.546 90.0913 28.6381C88.6285 27.7301 87.4684 26.4565 86.6109 24.8171C85.7786 23.1526 85.3624 21.2484 85.3624 19.1047ZM101.857 19.1803C101.857 17.8941 101.605 16.797 101.1 15.889C100.596 14.9559 99.9148 14.2497 99.0573 13.7705C98.1998 13.2661 97.2792 13.0139 96.2956 13.0139C95.312 13.0139 94.4041 13.2535 93.5718 13.7327C92.7395 14.2119 92.0585 14.918 91.5289 15.8512C91.0245 16.7591 90.7723 17.8436 90.7723 19.1047C90.7723 20.3657 91.0245 21.4754 91.5289 22.4338C92.0585 23.367 92.7395 24.0857 93.5718 24.5902C94.4293 25.0946 95.3372 25.3468 96.2956 25.3468C97.2792 25.3468 98.1998 25.1072 99.0573 24.628C99.9148 24.1236 100.596 23.4174 101.1 22.5095C101.605 21.5763 101.857 20.4666 101.857 19.1803Z" fill="white"/>
<path d="M115.05 6.20429C114.117 6.20429 113.335 5.91425 112.704 5.33417C112.099 4.72888 111.796 3.98487 111.796 3.10214C111.796 2.21942 112.099 1.48802 112.704 0.907944C113.335 0.302648 114.117 0 115.05 0C115.983 0 116.752 0.302648 117.357 0.907944C117.988 1.48802 118.303 2.21942 118.303 3.10214C118.303 3.98487 117.988 4.72888 117.357 5.33417C116.752 5.91425 115.983 6.20429 115.05 6.20429ZM117.66 8.70113V29.6595H112.364V8.70113H117.66Z" fill="white"/>
</svg>
